<svg xmlns="http://www.w3.org/2000/svg" xmlns:xlink="http://www.w3.org/1999/xlink" width="500" zoomAndPan="magnify" viewBox="0 0 375 374.999991" height="500" preserveAspectRatio="xMidYMid meet" version="1.0"><defs><g/></defs><rect x="-37.5" width="450" fill="#ffffff" y="-37.499999" height="449.999989" fill-opacity="1"/><rect x="-37.5" width="450" fill="#ffbd59" y="-37.499999" height="449.999989" fill-opacity="1"/><path fill="#000000" d="M 63.3125 173.117188 L 53.605469 164.777344 L 53.605469 153.519531 C 53.605469 153.355469 53.570312 153.195312 53.507812 153.039062 C 53.445312 152.886719 53.355469 152.753906 53.238281 152.636719 C 53.121094 152.519531 52.984375 152.425781 52.832031 152.363281 C 52.679688 152.300781 52.519531 152.269531 52.355469 152.269531 L 45.863281 152.269531 C 45.695312 152.269531 45.535156 152.300781 45.382812 152.363281 C 45.230469 152.425781 45.09375 152.519531 44.980469 152.636719 C 44.863281 152.753906 44.769531 152.886719 44.707031 153.039062 C 44.644531 153.195312 44.613281 153.355469 44.613281 153.519531 L 44.613281 157.039062 L 33.789062 147.75 C 33.554688 147.535156 33.277344 147.429688 32.957031 147.429688 C 32.640625 147.429688 32.363281 147.535156 32.125 147.75 L 2.605469 173.117188 C 2.40625 173.289062 2.273438 173.503906 2.207031 173.757812 C 2.140625 174.015625 2.15625 174.265625 2.25 174.511719 C 2.339844 174.757812 2.496094 174.957031 2.714844 175.105469 C 2.933594 175.253906 3.175781 175.324219 3.4375 175.320312 L 12.3125 175.320312 L 12.3125 198.738281 C 12.3125 198.902344 12.34375 199.0625 12.40625 199.214844 C 12.46875 199.371094 12.558594 199.503906 12.675781 199.621094 C 12.792969 199.738281 12.929688 199.828125 13.082031 199.894531 C 13.234375 199.957031 13.394531 199.988281 13.5625 199.988281 L 24.382812 199.988281 C 24.546875 199.988281 24.707031 199.957031 24.859375 199.894531 C 25.015625 199.828125 25.148438 199.738281 25.265625 199.621094 C 25.382812 199.503906 25.472656 199.371094 25.535156 199.214844 C 25.601562 199.0625 25.632812 198.902344 25.632812 198.738281 C 25.632812 198.570312 25.601562 198.414062 25.535156 198.257812 C 25.472656 198.105469 25.382812 197.96875 25.265625 197.851562 C 25.148438 197.734375 25.015625 197.644531 24.859375 197.582031 C 24.707031 197.519531 24.546875 197.488281 24.382812 197.488281 L 14.808594 197.488281 L 14.808594 174.070312 C 14.808594 173.902344 14.777344 173.742188 14.714844 173.589844 C 14.652344 173.4375 14.5625 173.300781 14.445312 173.183594 C 14.328125 173.066406 14.191406 172.976562 14.039062 172.914062 C 13.886719 172.847656 13.726562 172.816406 13.5625 172.816406 L 6.792969 172.816406 L 32.957031 150.367188 L 59.125 172.816406 L 52.355469 172.816406 C 52.191406 172.816406 52.03125 172.847656 51.878906 172.914062 C 51.722656 172.976562 51.589844 173.066406 51.472656 173.183594 C 51.355469 173.300781 51.265625 173.4375 51.203125 173.589844 C 51.136719 173.742188 51.105469 173.902344 51.105469 174.070312 L 51.105469 197.488281 L 41.53125 197.488281 C 41.367188 197.488281 41.207031 197.519531 41.054688 197.582031 C 40.902344 197.644531 40.765625 197.734375 40.648438 197.851562 C 40.53125 197.96875 40.441406 198.105469 40.378906 198.257812 C 40.316406 198.414062 40.285156 198.570312 40.285156 198.738281 C 40.285156 198.902344 40.316406 199.0625 40.378906 199.214844 C 40.441406 199.371094 40.53125 199.503906 40.648438 199.621094 C 40.765625 199.738281 40.902344 199.828125 41.054688 199.894531 C 41.207031 199.957031 41.367188 199.988281 41.53125 199.988281 L 52.355469 199.988281 C 52.519531 199.988281 52.679688 199.957031 52.832031 199.894531 C 52.984375 199.828125 53.121094 199.738281 53.238281 199.621094 C 53.355469 199.503906 53.445312 199.371094 53.507812 199.214844 C 53.570312 199.0625 53.605469 198.902344 53.605469 198.738281 L 53.605469 175.320312 L 62.503906 175.320312 C 62.765625 175.324219 63.007812 175.253906 63.226562 175.105469 C 63.441406 174.957031 63.597656 174.757812 63.691406 174.511719 C 63.785156 174.265625 63.800781 174.015625 63.734375 173.757812 C 63.667969 173.503906 63.535156 173.289062 63.335938 173.117188 Z M 47.109375 154.769531 L 51.105469 154.769531 L 51.105469 162.636719 L 47.109375 159.199219 Z M 43.464844 193.652344 C 45.011719 193.652344 46.078125 193.183594 46.636719 192.242188 C 47.550781 190.722656 46.761719 188.613281 44.296875 185.984375 C 43.636719 185.289062 42.941406 184.628906 42.214844 184 C 42.945312 183.390625 43.640625 182.742188 44.304688 182.058594 C 46.800781 179.429688 47.558594 177.328125 46.644531 175.804688 C 45.726562 174.277344 43.503906 173.992188 40.035156 174.96875 C 39.277344 175.179688 38.484375 175.4375 37.660156 175.746094 C 36.828125 171.375 35.304688 168.082031 32.957031 168.082031 C 30.609375 168.082031 29.078125 171.417969 28.253906 175.746094 C 27.421875 175.4375 26.628906 175.179688 25.882812 174.96875 C 22.410156 174.027344 20.1875 174.3125 19.273438 175.804688 C 18.355469 177.296875 19.148438 179.429688 21.609375 182.058594 C 22.269531 182.753906 22.964844 183.417969 23.691406 184.042969 C 22.964844 184.667969 22.269531 185.332031 21.609375 186.027344 C 19.113281 188.65625 18.355469 190.757812 19.273438 192.28125 C 19.835938 193.226562 20.9375 193.691406 22.445312 193.691406 C 23.613281 193.660156 24.757812 193.480469 25.882812 193.148438 C 26.640625 192.941406 27.429688 192.683594 28.253906 192.375 C 29.085938 196.746094 30.609375 200.039062 32.957031 200.039062 C 35.304688 200.039062 36.835938 196.703125 37.660156 192.375 C 38.492188 192.683594 39.285156 192.941406 40.035156 193.148438 C 41.15625 193.464844 42.300781 193.632812 43.464844 193.652344 Z M 43.546875 176.835938 C 43.890625 176.792969 44.207031 176.867188 44.496094 177.054688 C 44.695312 177.578125 43.496094 179.664062 40.25 182.417969 C 39.617188 181.9375 38.960938 181.464844 38.277344 180.992188 C 38.21875 180.046875 38.144531 179.113281 38.035156 178.207031 C 39.796875 177.433594 41.632812 176.976562 43.546875 176.835938 Z M 35.648438 188.730469 L 35.589844 188.730469 L 35.65625 188.730469 Z M 34.457031 186.503906 C 33.941406 186.8125 33.441406 187.105469 32.957031 187.335938 C 32.464844 187.0625 31.96875 186.777344 31.460938 186.503906 C 30.953125 186.226562 30.511719 185.929688 30.070312 185.667969 C 30.070312 185.140625 30.070312 184.585938 30.070312 184 C 30.070312 183.417969 30.070312 182.863281 30.070312 182.332031 C 30.511719 182.050781 30.976562 181.773438 31.460938 181.5 C 31.976562 181.191406 32.476562 180.90625 32.957031 180.664062 C 33.449219 180.941406 33.941406 181.222656 34.457031 181.5 C 34.972656 181.773438 35.40625 182.074219 35.847656 182.332031 C 35.847656 182.863281 35.847656 183.417969 35.847656 184 C 35.847656 184.585938 35.847656 185.140625 35.847656 185.667969 C 35.402344 185.9375 34.9375 186.214844 34.457031 186.503906 Z M 30.292969 188.695312 L 30.359375 188.695312 Z M 30.292969 179.230469 L 30.351562 179.230469 L 30.285156 179.230469 Z M 35.679688 179.296875 L 35.613281 179.296875 Z M 32.957031 170.515625 C 33.5 170.617188 34.621094 172.632812 35.3125 176.652344 C 34.546875 177.003906 33.757812 177.386719 32.964844 177.804688 C 32.132812 177.386719 31.382812 176.972656 30.617188 176.652344 C 31.292969 172.632812 32.417969 170.617188 32.957031 170.515625 Z M 21.410156 177.054688 C 21.707031 176.863281 22.027344 176.789062 22.375 176.835938 C 24.289062 176.976562 26.121094 177.429688 27.878906 178.195312 C 27.769531 179.105469 27.6875 180.039062 27.636719 180.984375 C 26.949219 181.449219 26.292969 181.925781 25.664062 182.410156 C 22.410156 179.664062 21.21875 177.578125 21.410156 177.054688 Z M 21.410156 190.949219 C 21.210938 190.421875 22.410156 188.339844 25.65625 185.585938 C 26.289062 186.0625 26.945312 186.539062 27.628906 187.011719 C 27.6875 187.953125 27.761719 188.886719 27.871094 189.796875 C 24.082031 191.289062 21.777344 191.355469 21.417969 190.957031 Z M 32.957031 197.496094 C 32.417969 197.394531 31.292969 195.375 30.601562 191.355469 C 31.367188 191.007812 32.160156 190.625 32.949219 190.207031 C 33.78125 190.625 34.53125 191.039062 35.296875 191.355469 C 34.621094 195.402344 33.5 197.394531 32.957031 197.496094 Z M 38.277344 187.0625 C 38.96875 186.59375 39.617188 186.113281 40.25 185.636719 C 43.496094 188.378906 44.6875 190.464844 44.496094 190.980469 C 44.128906 191.390625 41.824219 191.324219 38.035156 189.839844 C 38.144531 188.898438 38.226562 187.960938 38.277344 187.0625 Z M 38.277344 187.0625 " fill-opacity="1" fill-rule="nonzero"/><g fill="#000000" fill-opacity="1"><g transform="translate(65.682833, 196.874987)"><g><path d="M 23.5625 0 L 19.078125 -15.734375 L 14.59375 0 L 7.484375 0 L -0.515625 -28.046875 L 6.59375 -28.046875 L 11.390625 -8.8125 L 11.5625 -8.8125 L 16.65625 -28.046875 L 21.484375 -28.046875 L 26.59375 -8.8125 L 26.765625 -8.8125 L 31.546875 -28.046875 L 38.625 -28.046875 L 30.640625 0 Z M 23.5625 0 "/></g></g></g><g fill="#000000" fill-opacity="1"><g transform="translate(102.092489, 196.874987)"><g><path d="M 2.609375 -27.15625 C 3.316406 -27.863281 4.15625 -28.21875 5.125 -28.21875 C 6.101562 -28.21875 6.941406 -27.863281 7.640625 -27.15625 C 8.347656 -26.457031 8.703125 -25.617188 8.703125 -24.640625 C 8.703125 -23.671875 8.347656 -22.832031 7.640625 -22.125 C 6.941406 -21.425781 6.101562 -21.078125 5.125 -21.078125 C 4.15625 -21.078125 3.316406 -21.425781 2.609375 -22.125 C 1.910156 -22.832031 1.5625 -23.671875 1.5625 -24.640625 C 1.5625 -25.617188 1.910156 -26.457031 2.609375 -27.15625 Z M 2.046875 -17.4375 L 2.046875 0 L 8.0625 0 L 8.0625 -17.4375 Z M 2.046875 -17.4375 "/></g></g></g><g fill="#000000" fill-opacity="1"><g transform="translate(110.659335, 196.874987)"><g><path d="M 2.046875 0 L 2.046875 -29.234375 L 8.0625 -29.234375 L 8.0625 0 Z M 2.046875 0 "/></g></g></g><g fill="#000000" fill-opacity="1"><g transform="translate(119.056202, 196.874987)"><g><path d="M 2.046875 0 L 2.046875 -29.234375 L 8.0625 -29.234375 L 8.0625 0 Z M 2.046875 0 "/></g></g></g><g fill="#000000" fill-opacity="1"><g transform="translate(127.453069, 196.874987)"><g><path d="M 2.609375 -27.15625 C 3.316406 -27.863281 4.15625 -28.21875 5.125 -28.21875 C 6.101562 -28.21875 6.941406 -27.863281 7.640625 -27.15625 C 8.347656 -26.457031 8.703125 -25.617188 8.703125 -24.640625 C 8.703125 -23.671875 8.347656 -22.832031 7.640625 -22.125 C 6.941406 -21.425781 6.101562 -21.078125 5.125 -21.078125 C 4.15625 -21.078125 3.316406 -21.425781 2.609375 -22.125 C 1.910156 -22.832031 1.5625 -23.671875 1.5625 -24.640625 C 1.5625 -25.617188 1.910156 -26.457031 2.609375 -27.15625 Z M 2.046875 -17.4375 L 2.046875 0 L 8.0625 0 L 8.0625 -17.4375 Z M 2.046875 -17.4375 "/></g></g></g><g fill="#000000" fill-opacity="1"><g transform="translate(136.019916, 196.874987)"><g><path d="M 3.21875 -2.15625 C 1.59375 -3.9375 0.78125 -6.117188 0.78125 -8.703125 C 0.78125 -11.285156 1.59375 -13.472656 3.21875 -15.265625 C 4.851562 -17.054688 6.929688 -17.953125 9.453125 -17.953125 C 11.765625 -17.953125 13.664062 -17.226562 15.15625 -15.78125 L 15.15625 -17.4375 L 21.1875 -17.4375 L 21.1875 0 L 15.234375 0 L 15.234375 -1.96875 L 15.15625 -1.96875 C 13.664062 -0.3125 11.765625 0.515625 9.453125 0.515625 C 6.929688 0.515625 4.851562 -0.375 3.21875 -2.15625 Z M 8.34375 -11.65625 C 7.5625 -10.882812 7.171875 -9.898438 7.171875 -8.703125 C 7.171875 -7.503906 7.546875 -6.523438 8.296875 -5.765625 C 9.046875 -5.003906 10.03125 -4.625 11.25 -4.625 C 12.425781 -4.625 13.394531 -5.007812 14.15625 -5.78125 C 14.914062 -6.550781 15.296875 -7.523438 15.296875 -8.703125 C 15.296875 -9.898438 14.90625 -10.882812 14.125 -11.65625 C 13.34375 -12.425781 12.382812 -12.8125 11.25 -12.8125 C 10.09375 -12.8125 9.125 -12.425781 8.34375 -11.65625 Z M 8.34375 -11.65625 "/></g></g></g><g fill="#000000" fill-opacity="1"><g transform="translate(157.539276, 196.874987)"><g><path d="M 2.046875 0 L 2.046875 -17.4375 L 8.0625 -17.4375 L 8.0625 -15.609375 L 8.125 -15.609375 C 9.6875 -17.171875 11.351562 -17.953125 13.125 -17.953125 C 14.394531 -17.953125 15.582031 -17.691406 16.6875 -17.171875 C 17.800781 -16.648438 18.640625 -15.84375 19.203125 -14.75 C 20.972656 -16.882812 22.898438 -17.953125 24.984375 -17.953125 C 26.847656 -17.953125 28.445312 -17.429688 29.78125 -16.390625 C 31.125 -15.347656 31.796875 -13.710938 31.796875 -11.484375 L 31.796875 0 L 25.765625 0 L 25.765625 -9.859375 C 25.765625 -10.785156 25.507812 -11.5625 25 -12.1875 C 24.488281 -12.8125 23.726562 -13.125 22.71875 -13.125 C 21.832031 -13.125 21.15625 -12.859375 20.6875 -12.328125 C 20.21875 -11.796875 19.960938 -11.15625 19.921875 -10.40625 L 19.921875 0 L 13.90625 0 L 13.90625 -9.859375 C 13.90625 -10.785156 13.648438 -11.5625 13.140625 -12.1875 C 12.628906 -12.8125 11.863281 -13.125 10.84375 -13.125 C 9.914062 -13.125 9.21875 -12.832031 8.75 -12.25 C 8.289062 -11.675781 8.0625 -10.992188 8.0625 -10.203125 L 8.0625 0 Z M 2.046875 0 "/></g></g></g><g fill="#000000" fill-opacity="1"><g transform="translate(189.325456, 196.874987)"><g><path d="M 3.0625 -27.515625 C 3.738281 -28.210938 4.5625 -28.5625 5.53125 -28.5625 C 6.507812 -28.5625 7.347656 -28.207031 8.046875 -27.5 C 8.753906 -26.800781 9.109375 -25.960938 9.109375 -24.984375 C 9.109375 -21.992188 7.382812 -19.0625 3.9375 -16.1875 L 2.34375 -17.4375 C 2.476562 -17.570312 2.65625 -17.757812 2.875 -18 C 3.09375 -18.238281 3.414062 -18.738281 3.84375 -19.5 C 4.269531 -20.257812 4.550781 -21.023438 4.6875 -21.796875 C 3.914062 -21.972656 3.28125 -22.351562 2.78125 -22.9375 C 2.289062 -23.53125 2.046875 -24.210938 2.046875 -24.984375 C 2.046875 -25.984375 2.382812 -26.828125 3.0625 -27.515625 Z M 3.0625 -27.515625 "/></g></g></g><g fill="#000000" fill-opacity="1"><g transform="translate(197.51835, 196.874987)"><g><path d="M 9.625 -17.953125 C 10.625 -17.953125 11.609375 -17.835938 12.578125 -17.609375 C 13.554688 -17.378906 14.28125 -17.15625 14.75 -16.9375 L 15.46875 -16.59375 L 13.5 -12.640625 C 12.132812 -13.367188 10.84375 -13.734375 9.625 -13.734375 C 8.945312 -13.734375 8.460938 -13.660156 8.171875 -13.515625 C 7.890625 -13.367188 7.75 -13.09375 7.75 -12.6875 C 7.75 -12.59375 7.757812 -12.5 7.78125 -12.40625 C 7.800781 -12.320312 7.847656 -12.238281 7.921875 -12.15625 C 7.992188 -12.070312 8.054688 -12 8.109375 -11.9375 C 8.160156 -11.882812 8.253906 -11.820312 8.390625 -11.75 C 8.535156 -11.6875 8.644531 -11.640625 8.71875 -11.609375 C 8.800781 -11.578125 8.929688 -11.523438 9.109375 -11.453125 C 9.296875 -11.390625 9.429688 -11.335938 9.515625 -11.296875 C 9.609375 -11.265625 9.757812 -11.210938 9.96875 -11.140625 C 10.1875 -11.078125 10.351562 -11.035156 10.46875 -11.015625 C 11.175781 -10.804688 11.789062 -10.578125 12.3125 -10.328125 C 12.832031 -10.085938 13.378906 -9.75 13.953125 -9.3125 C 14.535156 -8.882812 14.984375 -8.34375 15.296875 -7.6875 C 15.617188 -7.03125 15.78125 -6.28125 15.78125 -5.4375 C 15.78125 -1.46875 13.023438 0.515625 7.515625 0.515625 C 6.265625 0.515625 5.078125 0.320312 3.953125 -0.0625 C 2.835938 -0.445312 2.03125 -0.832031 1.53125 -1.21875 L 0.78125 -1.84375 L 3.234375 -5.953125 C 3.410156 -5.796875 3.644531 -5.609375 3.9375 -5.390625 C 4.238281 -5.171875 4.773438 -4.875 5.546875 -4.5 C 6.316406 -4.125 6.984375 -3.9375 7.546875 -3.9375 C 8.796875 -3.9375 9.421875 -4.359375 9.421875 -5.203125 C 9.421875 -5.585938 9.257812 -5.882812 8.9375 -6.09375 C 8.625 -6.3125 8.085938 -6.554688 7.328125 -6.828125 C 6.566406 -7.097656 5.972656 -7.347656 5.546875 -7.578125 C 4.453125 -8.148438 3.585938 -8.789062 2.953125 -9.5 C 2.316406 -10.21875 2 -11.164062 2 -12.34375 C 2 -14.113281 2.6875 -15.488281 4.0625 -16.46875 C 5.4375 -17.457031 7.289062 -17.953125 9.625 -17.953125 Z M 9.625 -17.953125 "/></g></g></g><g fill="#000000" fill-opacity="1"><g transform="translate(212.544465, 196.874987)"><g/></g></g><g fill="#000000" fill-opacity="1"><g transform="translate(220.12542, 196.874987)"><g><path d="M 8.4375 -11.25 L 8.4375 0 L 2.046875 0 L 2.046875 -28.046875 L 8.4375 -28.046875 L 8.4375 -16.859375 L 17.46875 -16.859375 L 17.46875 -28.046875 L 23.875 -28.046875 L 23.875 0 L 17.46875 0 L 17.46875 -11.25 Z M 8.4375 -11.25 "/></g></g></g><g fill="#000000" fill-opacity="1"><g transform="translate(244.330473, 196.874987)"><g><path d="M 3.6875 -2.0625 C 1.75 -3.789062 0.78125 -6.003906 0.78125 -8.703125 C 0.78125 -11.398438 1.785156 -13.613281 3.796875 -15.34375 C 5.816406 -17.082031 8.3125 -17.953125 11.28125 -17.953125 C 14.207031 -17.953125 16.671875 -17.078125 18.671875 -15.328125 C 20.679688 -13.585938 21.6875 -11.378906 21.6875 -8.703125 C 21.6875 -6.023438 20.707031 -3.816406 18.75 -2.078125 C 16.789062 -0.347656 14.300781 0.515625 11.28125 0.515625 C 8.15625 0.515625 5.625 -0.34375 3.6875 -2.0625 Z M 8.34375 -11.65625 C 7.5625 -10.882812 7.171875 -9.898438 7.171875 -8.703125 C 7.171875 -7.503906 7.546875 -6.523438 8.296875 -5.765625 C 9.046875 -5.003906 10.03125 -4.625 11.25 -4.625 C 12.425781 -4.625 13.394531 -5.007812 14.15625 -5.78125 C 14.914062 -6.550781 15.296875 -7.523438 15.296875 -8.703125 C 15.296875 -9.898438 14.90625 -10.882812 14.125 -11.65625 C 13.34375 -12.425781 12.382812 -12.8125 11.25 -12.8125 C 10.09375 -12.8125 9.125 -12.425781 8.34375 -11.65625 Z M 8.34375 -11.65625 "/></g></g></g><g fill="#000000" fill-opacity="1"><g transform="translate(265.10191, 196.874987)"><g><path d="M 2.046875 0 L 2.046875 -17.4375 L 8.0625 -17.4375 L 8.0625 -15.609375 L 8.125 -15.609375 C 9.6875 -17.171875 11.351562 -17.953125 13.125 -17.953125 C 14.394531 -17.953125 15.582031 -17.691406 16.6875 -17.171875 C 17.800781 -16.648438 18.640625 -15.84375 19.203125 -14.75 C 20.972656 -16.882812 22.898438 -17.953125 24.984375 -17.953125 C 26.847656 -17.953125 28.445312 -17.429688 29.78125 -16.390625 C 31.125 -15.347656 31.796875 -13.710938 31.796875 -11.484375 L 31.796875 0 L 25.765625 0 L 25.765625 -9.859375 C 25.765625 -10.785156 25.507812 -11.5625 25 -12.1875 C 24.488281 -12.8125 23.726562 -13.125 22.71875 -13.125 C 21.832031 -13.125 21.15625 -12.859375 20.6875 -12.328125 C 20.21875 -11.796875 19.960938 -11.15625 19.921875 -10.40625 L 19.921875 0 L 13.90625 0 L 13.90625 -9.859375 C 13.90625 -10.785156 13.648438 -11.5625 13.140625 -12.1875 C 12.628906 -12.8125 11.863281 -13.125 10.84375 -13.125 C 9.914062 -13.125 9.21875 -12.832031 8.75 -12.25 C 8.289062 -11.675781 8.0625 -10.992188 8.0625 -10.203125 L 8.0625 0 Z M 2.046875 0 "/></g></g></g><g fill="#000000" fill-opacity="1"><g transform="translate(296.888102, 196.874987)"><g><path d="M 19.6875 -7.890625 L 7.03125 -7.890625 C 7.03125 -6.660156 7.425781 -5.75 8.21875 -5.15625 C 9.019531 -4.570312 9.882812 -4.28125 10.8125 -4.28125 C 11.789062 -4.28125 12.5625 -4.410156 13.125 -4.671875 C 13.6875 -4.929688 14.332031 -5.445312 15.0625 -6.21875 L 19.40625 -4.046875 C 17.59375 -1.003906 14.582031 0.515625 10.375 0.515625 C 7.738281 0.515625 5.476562 -0.382812 3.59375 -2.1875 C 1.71875 -3.988281 0.78125 -6.160156 0.78125 -8.703125 C 0.78125 -11.242188 1.71875 -13.421875 3.59375 -15.234375 C 5.476562 -17.046875 7.738281 -17.953125 10.375 -17.953125 C 13.132812 -17.953125 15.378906 -17.148438 17.109375 -15.546875 C 18.847656 -13.953125 19.71875 -11.671875 19.71875 -8.703125 C 19.71875 -8.296875 19.707031 -8.023438 19.6875 -7.890625 Z M 7.203125 -11.21875 L 13.84375 -11.21875 C 13.707031 -12.125 13.347656 -12.820312 12.765625 -13.3125 C 12.191406 -13.800781 11.453125 -14.046875 10.546875 -14.046875 C 9.546875 -14.046875 8.75 -13.785156 8.15625 -13.265625 C 7.570312 -12.742188 7.253906 -12.0625 7.203125 -11.21875 Z M 7.203125 -11.21875 "/></g></g></g><g fill="#000000" fill-opacity="1"><g transform="translate(315.687768, 196.874987)"><g><path d="M 2.046875 0 L 2.046875 -29.234375 L 8.0625 -29.234375 L 8.0625 0 Z M 2.046875 0 "/></g></g></g><g fill="#000000" fill-opacity="1"><g transform="translate(324.084641, 196.874987)"><g><path d="M 3.21875 -2.15625 C 1.59375 -3.9375 0.78125 -6.117188 0.78125 -8.703125 C 0.78125 -11.285156 1.59375 -13.472656 3.21875 -15.265625 C 4.851562 -17.054688 6.929688 -17.953125 9.453125 -17.953125 C 11.765625 -17.953125 13.664062 -17.226562 15.15625 -15.78125 L 15.15625 -17.4375 L 21.1875 -17.4375 L 21.1875 0 L 15.234375 0 L 15.234375 -1.96875 L 15.15625 -1.96875 C 13.664062 -0.3125 11.765625 0.515625 9.453125 0.515625 C 6.929688 0.515625 4.851562 -0.375 3.21875 -2.15625 Z M 8.34375 -11.65625 C 7.5625 -10.882812 7.171875 -9.898438 7.171875 -8.703125 C 7.171875 -7.503906 7.546875 -6.523438 8.296875 -5.765625 C 9.046875 -5.003906 10.03125 -4.625 11.25 -4.625 C 12.425781 -4.625 13.394531 -5.007812 14.15625 -5.78125 C 14.914062 -6.550781 15.296875 -7.523438 15.296875 -8.703125 C 15.296875 -9.898438 14.90625 -10.882812 14.125 -11.65625 C 13.34375 -12.425781 12.382812 -12.8125 11.25 -12.8125 C 10.09375 -12.8125 9.125 -12.425781 8.34375 -11.65625 Z M 8.34375 -11.65625 "/></g></g></g><g fill="#000000" fill-opacity="1"><g transform="translate(345.603995, 196.874987)"><g><path d="M 19.984375 -15.265625 C 21.617188 -13.472656 22.4375 -11.285156 22.4375 -8.703125 C 22.4375 -6.117188 21.617188 -3.9375 19.984375 -2.15625 C 18.359375 -0.375 16.285156 0.515625 13.765625 0.515625 C 11.453125 0.515625 9.550781 -0.3125 8.0625 -1.96875 L 7.984375 -1.96875 L 7.984375 0 L 2.046875 0 L 2.046875 -29.234375 L 8.0625 -29.234375 L 8.0625 -15.78125 C 9.550781 -17.226562 11.453125 -17.953125 13.765625 -17.953125 C 16.285156 -17.953125 18.359375 -17.054688 19.984375 -15.265625 Z M 14.921875 -5.765625 C 15.671875 -6.523438 16.046875 -7.503906 16.046875 -8.703125 C 16.046875 -9.898438 15.65625 -10.882812 14.875 -11.65625 C 14.09375 -12.425781 13.125 -12.8125 11.96875 -12.8125 C 10.832031 -12.8125 9.875 -12.425781 9.09375 -11.65625 C 8.3125 -10.882812 7.921875 -9.898438 7.921875 -8.703125 C 7.921875 -7.523438 8.300781 -6.550781 9.0625 -5.78125 C 9.820312 -5.007812 10.789062 -4.625 11.96875 -4.625 C 13.1875 -4.625 14.171875 -5.003906 14.921875 -5.765625 Z M 14.921875 -5.765625 "/></g></g></g></svg>